# xmcd
#
# Track frame offsets:
# 150
# 10809
# 21367
# 35818
# 47212
# 59521
# 73295
# 86747
# 96370
# 108834
# 119213
# 129526
# 139814
# 148923
# 160310
# 171272
# 183081
# 195538
# 207255
# 218183
#
# Disc length: 3065 seconds
#
#
# Revision: 0
# Processed by: cddbd v1.5.2PL0 Copyright (c) Steve Scherf et al.
# Submitted via: Nero 7, 2, 3, 2 
#
DISCID=3c0bf714
DTITLE=Verschiedene - American Roadsongs 07
DYEAR=2006
DGENRE=Blues
TTITLE0=Tennessee Baby
TTITLE1=Memphis Hop
TTITLE2=Tennessee Waltz Blues
TTITLE3=Boogie Woogie Tennessee
TTITLE4=Leavin Tennessee
TTITLE5=In The Hills Of Tennessee
TTITLE6=Nine Tenth Of Tennessee River
TTITLE7=Ten-Ten-Tennessee Line
TTITLE8=Tennessee Local
TTITLE9=Music Making Mama From Memphis
TTITLE10=My Tennessee Talkin' Doll
TTITLE11=Tennessee Courtin' Time
TTITLE12=Tennessee Rock
TTITLE13=Tennessee Avenue
TTITLE14=Tennessee Waltz
TTITLE15=Good Night Cincinnati, Good Morning Tennessee
TTITLE16=Tennessee Tango
TTITLE17=Chattanooga Shoe Shine Boy
TTITLE18=Tennessee Border
TTITLE19=Chattanooga Boogie
EXTD=
EXTT0=
EXTT1=
EXTT2=
EXTT3=
EXTT4=
EXTT5=
EXTT6=
EXTT7=
EXTT8=
EXTT9=
EXTT10=
EXTT11=
EXTT12=
EXTT13=
EXTT14=
EXTT15=
EXTT16=
EXTT17=
EXTT18=
EXTT19=
PLAYORDER=
